# xmcd
#
# Track frame offsets:
#	150
#	14227
#	25916
#	39015
#	56619
#	70496
#	83537
#	97096
#	112633
#	124502
#	145078
#	160854
#	175128
#	188259
#	200657
#
# Disc length: 2862 seconds
#
# Revision: 1
# Processed by: cddbd v1.5.2PL0 Copyright (c) Steve Scherf et al.
# Submitted via: audiograbber 1.83.01
#
DISCID=bb0b2c0f
DTITLE=Various Artist - CB80108
DYEAR=1900
DGENRE=Karaoke
TTITLE0=Twitty, Conway - Linda On My Mind
TTITLE1=Nelson, Willie - Blue Eyes Crying In The Rain
TTITLE2=Gatlin, Larry - Broken Lady
TTITLE3=Spears, Billie Jo - Blanket On The Ground
TTITLE4=Williams, Don - I Wouldn't Want To Live If You Didn't Love Me
TTITLE5=Fender, Freddy - Before The Next Teardrop Falls
TTITLE6=Gilley, Mickey - City Lights
TTITLE7=Haggard, Merle - Always Wanting You
TTITLE8=Parton, Dolly - Bargain Store, The
TTITLE9=Twitty, Conway - Don't Cry Joni
TTITLE10=Fender, Freddy - Wasted Days And Wasted Nights
TTITLE11=Parton, Dolly - Seeker, The
TTITLE12=Haggard, Merle - Kentucky Gambler
TTITLE13=Jones, George - Door, The
TTITLE14=Statler Brothers - I'll Go To My Grave Loving You
EXTD=
EXTT0=
EXTT1=
EXTT2=
EXTT3=
EXTT4=
EXTT5=
EXTT6=
EXTT7=
EXTT8=
EXTT9=
EXTT10=
EXTT11=
EXTT12=
EXTT13=
EXTT14=
PLAYORDER=
